<svg width="36" height="14" viewBox="0 0 36 14" fill="none" xmlns="http://www.w3.org/2000/svg">
<path d="M23.2475 13.9994C23.1927 13.9994 23.1378 13.9825 23.0917 13.9491C23.0101 13.8902 22.9693 13.7905 22.9865 13.6919L23.8056 8.95332L20.3368 5.5978C20.2647 5.52784 20.2388 5.42344 20.2698 5.3285C20.301 5.23329 20.384 5.16386 20.4839 5.1494L25.2772 4.45799L27.4211 0.14676C27.4656 0.0568166 27.5578 1.02754e-05 27.6585 1.02754e-05C27.7595 1.02754e-05 27.8517 0.0568166 27.8959 0.14676L30.0396 4.45799L34.8332 5.1494C34.9331 5.16386 35.0158 5.23303 35.0473 5.3285C35.0783 5.42344 35.0526 5.52811 34.9803 5.5978L31.5115 8.95384L32.3303 13.6922C32.3472 13.7908 32.3064 13.8905 32.2251 13.9494C32.1435 14.0088 32.0351 14.0164 31.9458 13.9694L27.6585 11.7324L23.3707 13.9694C23.3321 13.9894 23.2897 13.9994 23.2475 13.9994Z" fill="#FFA800"/>
<path d="M2.99065 13.9993C2.9358 13.9993 2.88095 13.9825 2.83484 13.9491C2.75323 13.8902 2.71243 13.7905 2.72965 13.6919L3.54868 8.95331L0.0799192 5.59779C0.0078465 5.52783 -0.018121 5.42343 0.0128809 5.32849C0.0441477 5.23328 0.127084 5.16385 0.226979 5.14939L5.02034 4.45798L7.16424 0.14675C7.20875 0.0568063 7.30096 0 7.40165 0C7.50261 0 7.59482 0.0568063 7.63907 0.14675L9.7827 4.45798L14.5763 5.14939C14.6762 5.16385 14.7589 5.23302 14.7904 5.32849C14.8214 5.42343 14.7957 5.5281 14.7234 5.59779L11.2546 8.95383L12.0734 13.6922C12.0904 13.7908 12.0495 13.8905 11.9682 13.9494C11.8866 14.0088 11.7782 14.0164 11.6889 13.9694L7.40165 11.7323L3.11386 13.9694C3.07517 13.9893 3.03278 13.9993 2.99065 13.9993Z" fill="#FFA800"/>
</svg>
