<svg width="498" height="438" viewBox="0 0 498 438" fill="none" xmlns="http://www.w3.org/2000/svg">
<g filter="url(#filter0_d_2401_145)">
<path d="M80 338C80 343.523 84.4772 348 90 348H408C413.523 348 418 343.523 418 338V98C418 92.4772 413.523 88 408 88H388.433C383.041 88 377.877 85.8228 374.113 81.962L364.08 71.6718C362.118 69.6591 358.882 69.6591 356.92 71.6718L346.887 81.962C343.123 85.8228 337.959 88 332.567 88H90C84.4771 88 80 92.4772 80 98V338Z" fill="white"/>
</g>
<path d="M110 209C110 203.477 114.477 199 120 199H387V249C387 254.523 382.523 259 377 259H110V209Z" fill="#47B39C"/>
<path d="M146.352 228.914C146.352 230.586 146.062 232.055 145.484 233.32C144.906 234.578 144.078 235.547 143 236.227C141.93 236.898 140.695 237.234 139.297 237.234C137.914 237.234 136.68 236.898 135.594 236.227C134.516 235.547 133.68 234.582 133.086 233.332C132.5 232.082 132.203 230.641 132.195 229.008V228.047C132.195 226.383 132.488 224.914 133.074 223.641C133.668 222.367 134.5 221.395 135.57 220.723C136.648 220.043 137.883 219.703 139.273 219.703C140.664 219.703 141.895 220.039 142.965 220.711C144.043 221.375 144.875 222.336 145.461 223.594C146.047 224.844 146.344 226.301 146.352 227.965V228.914ZM143.387 228.023C143.387 226.133 143.027 224.684 142.309 223.676C141.598 222.668 140.586 222.164 139.273 222.164C137.992 222.164 136.988 222.668 136.262 223.676C135.543 224.676 135.176 226.094 135.16 227.93V228.914C135.16 230.789 135.523 232.238 136.25 233.262C136.984 234.285 138 234.797 139.297 234.797C140.609 234.797 141.617 234.297 142.32 233.297C143.031 232.297 143.387 230.836 143.387 228.914V228.023ZM148.555 230.836C148.555 228.766 148.961 227.125 149.773 225.914C150.594 224.695 151.734 224.086 153.195 224.086C153.789 224.086 154.328 224.195 154.812 224.414V219H157.648V224.461C158.148 224.211 158.734 224.086 159.406 224.086C160.859 224.086 161.996 224.691 162.816 225.902C163.645 227.105 164.059 228.832 164.059 231.082C164.059 232.98 163.645 234.48 162.816 235.582C161.988 236.684 160.859 237.234 159.43 237.234C158.781 237.234 158.188 237.117 157.648 236.883V241.875H154.812V236.93C154.336 237.133 153.789 237.234 153.172 237.234C151.805 237.234 150.711 236.73 149.891 235.723C149.078 234.707 148.637 233.312 148.566 231.539L148.555 230.836ZM161.211 230.836C161.211 229.414 160.984 228.316 160.531 227.543C160.078 226.762 159.438 226.371 158.609 226.371C158.258 226.371 157.938 226.422 157.648 226.523V234.844C157.906 234.922 158.234 234.961 158.633 234.961C160.352 234.961 161.211 233.586 161.211 230.836ZM151.391 231.082C151.391 232.348 151.602 233.312 152.023 233.977C152.445 234.633 153.07 234.961 153.898 234.961C154.25 234.961 154.555 234.922 154.812 234.844V226.488C154.547 226.41 154.25 226.371 153.922 226.371C153.109 226.371 152.484 226.75 152.047 227.508C151.609 228.258 151.391 229.449 151.391 231.082ZM165.98 230.543C165.98 229.301 166.227 228.184 166.719 227.191C167.211 226.191 167.902 225.426 168.793 224.895C169.684 224.355 170.707 224.086 171.863 224.086C173.574 224.086 174.961 224.637 176.023 225.738C177.094 226.84 177.672 228.301 177.758 230.121L177.77 230.789C177.77 232.039 177.527 233.156 177.043 234.141C176.566 235.125 175.879 235.887 174.98 236.426C174.09 236.965 173.059 237.234 171.887 237.234C170.098 237.234 168.664 236.641 167.586 235.453C166.516 234.258 165.98 232.668 165.98 230.684V230.543ZM168.828 230.789C168.828 232.094 169.098 233.117 169.637 233.859C170.176 234.594 170.926 234.961 171.887 234.961C172.848 234.961 173.594 234.586 174.125 233.836C174.664 233.086 174.934 231.988 174.934 230.543C174.934 229.262 174.656 228.246 174.102 227.496C173.555 226.746 172.809 226.371 171.863 226.371C170.934 226.371 170.195 226.742 169.648 227.484C169.102 228.219 168.828 229.32 168.828 230.789ZM191.281 230.789C191.281 232.75 190.836 234.316 189.945 235.488C189.055 236.652 187.859 237.234 186.359 237.234C184.969 237.234 183.855 236.777 183.02 235.863V241.875H180.172V224.32H182.797L182.914 225.609C183.75 224.594 184.887 224.086 186.324 224.086C187.871 224.086 189.082 224.664 189.957 225.82C190.84 226.969 191.281 228.566 191.281 230.613V230.789ZM188.445 230.543C188.445 229.277 188.191 228.273 187.684 227.531C187.184 226.789 186.465 226.418 185.527 226.418C184.363 226.418 183.527 226.898 183.02 227.859V233.484C183.535 234.469 184.379 234.961 185.551 234.961C186.457 234.961 187.164 234.598 187.672 233.871C188.188 233.137 188.445 232.027 188.445 230.543ZM201.23 233.496L204.98 224.32H208.543V237H205.695V228.609L202.203 237H200.27L196.766 228.562V237H193.918V224.32H197.504L201.23 233.496ZM219.664 224.32H222.5V237H219.664V228.539L214.695 237H211.859V224.32H214.695V232.781L219.664 224.32ZM235.508 226.582H231.395V237H228.547V226.582H224.48V224.32H235.508V226.582ZM240.477 228.352H243.266C244.305 228.352 245.211 228.531 245.984 228.891C246.758 229.25 247.344 229.754 247.742 230.402C248.148 231.051 248.352 231.805 248.352 232.664C248.352 233.969 247.891 235.016 246.969 235.805C246.047 236.594 244.82 236.992 243.289 237H237.629V224.32H240.477V228.352ZM240.477 230.637V234.727H243.254C243.949 234.727 244.496 234.555 244.895 234.211C245.301 233.859 245.504 233.363 245.504 232.723C245.504 232.082 245.305 231.578 244.906 231.211C244.516 230.836 243.984 230.645 243.312 230.637H240.477ZM266.211 227.789C266.211 228.352 266.039 228.871 265.695 229.348C265.359 229.816 264.883 230.191 264.266 230.473C265.719 230.98 266.445 231.961 266.445 233.414C266.445 234.578 265.973 235.508 265.027 236.203C264.082 236.891 262.816 237.234 261.23 237.234C260.262 237.234 259.379 237.074 258.582 236.754C257.785 236.426 257.164 235.965 256.719 235.371C256.273 234.77 256.051 234.059 256.051 233.238H258.887C258.887 233.754 259.117 234.188 259.578 234.539C260.039 234.883 260.621 235.055 261.324 235.055C262.02 235.055 262.57 234.895 262.977 234.574C263.391 234.246 263.598 233.82 263.598 233.297C263.598 232.68 263.418 232.234 263.059 231.961C262.699 231.688 262.145 231.551 261.395 231.551H259.355V229.5H261.465C262.738 229.484 263.375 228.961 263.375 227.93C263.375 227.414 263.191 227.012 262.824 226.723C262.457 226.434 261.953 226.289 261.312 226.289C260.688 226.289 260.16 226.445 259.73 226.758C259.301 227.062 259.086 227.449 259.086 227.918H256.25C256.25 226.801 256.719 225.887 257.656 225.176C258.594 224.457 259.785 224.098 261.23 224.098C262.801 224.098 264.023 224.418 264.898 225.059C265.773 225.699 266.211 226.609 266.211 227.789ZM276.441 237C276.316 236.758 276.207 236.363 276.113 235.816C275.207 236.762 274.098 237.234 272.785 237.234C271.512 237.234 270.473 236.871 269.668 236.145C268.863 235.418 268.461 234.52 268.461 233.449C268.461 232.098 268.961 231.062 269.961 230.344C270.969 229.617 272.406 229.254 274.273 229.254H276.02V228.422C276.02 227.766 275.836 227.242 275.469 226.852C275.102 226.453 274.543 226.254 273.793 226.254C273.145 226.254 272.613 226.418 272.199 226.746C271.785 227.066 271.578 227.477 271.578 227.977H268.73C268.73 227.281 268.961 226.633 269.422 226.031C269.883 225.422 270.508 224.945 271.297 224.602C272.094 224.258 272.98 224.086 273.957 224.086C275.441 224.086 276.625 224.461 277.508 225.211C278.391 225.953 278.844 227 278.867 228.352V234.07C278.867 235.211 279.027 236.121 279.348 236.801V237H276.441ZM273.312 234.949C273.875 234.949 274.402 234.812 274.895 234.539C275.395 234.266 275.77 233.898 276.02 233.438V231.047H274.484C273.43 231.047 272.637 231.23 272.105 231.598C271.574 231.965 271.309 232.484 271.309 233.156C271.309 233.703 271.488 234.141 271.848 234.469C272.215 234.789 272.703 234.949 273.312 234.949ZM286.355 231.984H284.914V237H282.066V224.32H284.914V229.383H286.168L289.672 224.32H293.188L288.605 230.391L293.574 237H289.871L286.355 231.984ZM302.715 237C302.59 236.758 302.48 236.363 302.387 235.816C301.48 236.762 300.371 237.234 299.059 237.234C297.785 237.234 296.746 236.871 295.941 236.145C295.137 235.418 294.734 234.52 294.734 233.449C294.734 232.098 295.234 231.062 296.234 230.344C297.242 229.617 298.68 229.254 300.547 229.254H302.293V228.422C302.293 227.766 302.109 227.242 301.742 226.852C301.375 226.453 300.816 226.254 300.066 226.254C299.418 226.254 298.887 226.418 298.473 226.746C298.059 227.066 297.852 227.477 297.852 227.977H295.004C295.004 227.281 295.234 226.633 295.695 226.031C296.156 225.422 296.781 224.945 297.57 224.602C298.367 224.258 299.254 224.086 300.23 224.086C301.715 224.086 302.898 224.461 303.781 225.211C304.664 225.953 305.117 227 305.141 228.352V234.07C305.141 235.211 305.301 236.121 305.621 236.801V237H302.715ZM299.586 234.949C300.148 234.949 300.676 234.812 301.168 234.539C301.668 234.266 302.043 233.898 302.293 233.438V231.047H300.758C299.703 231.047 298.91 231.23 298.379 231.598C297.848 231.965 297.582 232.484 297.582 233.156C297.582 233.703 297.762 234.141 298.121 234.469C298.488 234.789 298.977 234.949 299.586 234.949ZM317.727 227.789C317.727 228.352 317.555 228.871 317.211 229.348C316.875 229.816 316.398 230.191 315.781 230.473C317.234 230.98 317.961 231.961 317.961 233.414C317.961 234.578 317.488 235.508 316.543 236.203C315.598 236.891 314.332 237.234 312.746 237.234C311.777 237.234 310.895 237.074 310.098 236.754C309.301 236.426 308.68 235.965 308.234 235.371C307.789 234.77 307.566 234.059 307.566 233.238H310.402C310.402 233.754 310.633 234.188 311.094 234.539C311.555 234.883 312.137 235.055 312.84 235.055C313.535 235.055 314.086 234.895 314.492 234.574C314.906 234.246 315.113 233.82 315.113 233.297C315.113 232.68 314.934 232.234 314.574 231.961C314.215 231.688 313.66 231.551 312.91 231.551H310.871V229.5H312.98C314.254 229.484 314.891 228.961 314.891 227.93C314.891 227.414 314.707 227.012 314.34 226.723C313.973 226.434 313.469 226.289 312.828 226.289C312.203 226.289 311.676 226.445 311.246 226.758C310.816 227.062 310.602 227.449 310.602 227.918H307.766C307.766 226.801 308.234 225.887 309.172 225.176C310.109 224.457 311.301 224.098 312.746 224.098C314.316 224.098 315.539 224.418 316.414 225.059C317.289 225.699 317.727 226.609 317.727 227.789Z" fill="white"/>
<g clip-path="url(#clip0_2401_145)">
<path d="M364.875 219.25C364.75 219.125 364.625 219 364.375 219H340.625L340 215.75C340 215.5 339.625 215.25 339.375 215.25H335.625C335.25 215.25 335 215.5 335 215.875C335 216.25 335.25 216.5 335.625 216.5H338.875L341.875 231.75C342.25 233.75 344.125 235.25 346.125 235.25H360.5C360.875 235.25 361.125 235 361.125 234.625C361.125 234.25 360.875 234 360.5 234H346.25C345.25 234 344.25 233.5 343.75 232.625L362 230.125C362.25 230.125 362.5 229.875 362.5 229.625L365 219.625C365 219.625 365 219.375 364.875 219.25ZM361.375 229L343.125 231.375L340.875 220.125H363.5L361.375 229Z" fill="white"/>
<path d="M345.625 236.5C343.875 236.5 342.5 237.875 342.5 239.625C342.5 241.375 343.875 242.75 345.625 242.75C347.375 242.75 348.75 241.375 348.75 239.625C348.75 237.875 347.375 236.5 345.625 236.5ZM345.625 241.5C344.625 241.5 343.75 240.625 343.75 239.625C343.75 238.625 344.625 237.75 345.625 237.75C346.625 237.75 347.5 238.625 347.5 239.625C347.5 240.625 346.625 241.5 345.625 241.5Z" fill="white"/>
<path d="M358.125 236.5C356.375 236.5 355 237.875 355 239.625C355 241.375 356.375 242.75 358.125 242.75C359.875 242.75 361.25 241.375 361.25 239.625C361.25 237.875 359.875 236.5 358.125 236.5ZM358.125 241.5C357.125 241.5 356.25 240.625 356.25 239.625C356.25 238.625 357.125 237.75 358.125 237.75C359.125 237.75 360 238.625 360 239.625C360 240.625 359.125 241.5 358.125 241.5Z" fill="white"/>
</g>
<path d="M113.524 303.245V308H111.301V295.203H116.196C117.626 295.203 118.76 295.575 119.598 296.319C120.441 297.063 120.863 298.048 120.863 299.272C120.863 300.526 120.45 301.502 119.624 302.199C118.804 302.896 117.652 303.245 116.17 303.245H113.524ZM113.524 301.461H116.196C116.987 301.461 117.591 301.276 118.007 300.907C118.423 300.532 118.631 299.993 118.631 299.29C118.631 298.599 118.42 298.048 117.998 297.638C117.576 297.222 116.996 297.008 116.258 296.996H113.524V301.461ZM126.673 308.176C125.319 308.176 124.221 307.751 123.377 306.901C122.539 306.046 122.12 304.909 122.12 303.491V303.228C122.12 302.278 122.302 301.432 122.665 300.688C123.034 299.938 123.55 299.354 124.212 298.938C124.874 298.522 125.612 298.314 126.427 298.314C127.722 298.314 128.721 298.728 129.424 299.554C130.133 300.38 130.487 301.549 130.487 303.061V303.922H124.273C124.338 304.707 124.599 305.328 125.056 305.785C125.519 306.242 126.099 306.471 126.796 306.471C127.774 306.471 128.571 306.075 129.187 305.284L130.338 306.383C129.957 306.951 129.447 307.394 128.809 307.71C128.176 308.021 127.464 308.176 126.673 308.176ZM126.418 300.028C125.832 300.028 125.357 300.233 124.994 300.644C124.637 301.054 124.408 301.625 124.309 302.357H128.378V302.199C128.331 301.484 128.141 300.945 127.807 300.582C127.473 300.213 127.01 300.028 126.418 300.028ZM132.192 306.295C132.784 305.633 133.18 305.006 133.379 304.414C133.584 303.816 133.707 303.055 133.748 302.129L133.871 298.49H140.472V306.295H141.79V310.83H139.663V308H133.563V310.83H131.401L131.41 306.295H132.192ZM134.697 306.295H138.345V300.327H135.945L135.884 302.146C135.802 303.893 135.406 305.275 134.697 306.295ZM148.997 308C148.903 307.818 148.821 307.522 148.751 307.112C148.071 307.821 147.239 308.176 146.255 308.176C145.3 308.176 144.521 307.903 143.917 307.358C143.313 306.813 143.012 306.14 143.012 305.337C143.012 304.323 143.387 303.547 144.137 303.008C144.893 302.463 145.971 302.19 147.371 302.19H148.681V301.566C148.681 301.074 148.543 300.682 148.268 300.389C147.992 300.09 147.573 299.94 147.011 299.94C146.524 299.94 146.126 300.063 145.815 300.31C145.505 300.55 145.35 300.857 145.35 301.232H143.214C143.214 300.711 143.387 300.225 143.732 299.773C144.078 299.316 144.547 298.959 145.139 298.701C145.736 298.443 146.401 298.314 147.134 298.314C148.247 298.314 149.135 298.596 149.797 299.158C150.459 299.715 150.799 300.5 150.816 301.514V305.803C150.816 306.658 150.937 307.341 151.177 307.851V308H148.997ZM146.65 306.462C147.072 306.462 147.468 306.359 147.837 306.154C148.212 305.949 148.493 305.674 148.681 305.328V303.535H147.529C146.738 303.535 146.144 303.673 145.745 303.948C145.347 304.224 145.147 304.613 145.147 305.117C145.147 305.527 145.282 305.855 145.552 306.102C145.827 306.342 146.193 306.462 146.65 306.462ZM156.433 304.238H155.352V308H153.216V298.49H155.352V302.287H156.292L158.92 298.49H161.557L158.12 303.043L161.847 308H159.069L156.433 304.238ZM170.504 300.187H167.419V308H165.283V300.187H162.233V298.49H170.504V300.187ZM177.869 298.49H179.996V308H177.869V301.654L174.143 308H172.016V298.49H174.143V304.836L177.869 298.49ZM190.596 303.342C190.596 304.812 190.262 305.987 189.594 306.866C188.926 307.739 188.029 308.176 186.904 308.176C185.861 308.176 185.026 307.833 184.399 307.147V311.656H182.264V298.49H184.232L184.32 299.457C184.947 298.695 185.8 298.314 186.878 298.314C188.038 298.314 188.946 298.748 189.603 299.615C190.265 300.477 190.596 301.675 190.596 303.21V303.342ZM188.469 303.157C188.469 302.208 188.278 301.455 187.897 300.898C187.522 300.342 186.983 300.063 186.28 300.063C185.407 300.063 184.78 300.424 184.399 301.145V305.363C184.786 306.102 185.419 306.471 186.298 306.471C186.978 306.471 187.508 306.198 187.889 305.653C188.275 305.103 188.469 304.271 188.469 303.157ZM192.011 303.157C192.011 302.226 192.195 301.388 192.564 300.644C192.934 299.894 193.452 299.319 194.12 298.921C194.788 298.517 195.556 298.314 196.423 298.314C197.706 298.314 198.746 298.728 199.543 299.554C200.346 300.38 200.779 301.476 200.844 302.841L200.853 303.342C200.853 304.279 200.671 305.117 200.308 305.855C199.95 306.594 199.435 307.165 198.761 307.569C198.093 307.974 197.319 308.176 196.44 308.176C195.099 308.176 194.023 307.73 193.215 306.84C192.412 305.943 192.011 304.751 192.011 303.263V303.157ZM194.146 303.342C194.146 304.32 194.349 305.088 194.753 305.645C195.157 306.195 195.72 306.471 196.44 306.471C197.161 306.471 197.721 306.189 198.119 305.627C198.523 305.064 198.726 304.241 198.726 303.157C198.726 302.196 198.518 301.435 198.102 300.872C197.691 300.31 197.132 300.028 196.423 300.028C195.726 300.028 195.172 300.307 194.762 300.863C194.352 301.414 194.146 302.24 194.146 303.342ZM202.821 308V298.49H206.68C207.98 298.49 208.971 298.719 209.65 299.176C210.33 299.627 210.67 300.277 210.67 301.127C210.67 301.566 210.532 301.962 210.257 302.313C209.987 302.659 209.586 302.926 209.053 303.113C209.674 303.242 210.166 303.503 210.529 303.896C210.893 304.288 211.074 304.751 211.074 305.284C211.074 306.169 210.746 306.843 210.09 307.306C209.439 307.769 208.502 308 207.277 308H202.821ZM204.957 303.948V306.312H207.295C208.391 306.312 208.938 305.92 208.938 305.135C208.938 304.344 208.382 303.948 207.269 303.948H204.957ZM204.957 302.419H206.715C207.928 302.419 208.534 302.062 208.534 301.347C208.534 300.597 207.96 300.21 206.812 300.187H204.957V302.419ZM218.606 308C218.513 307.818 218.431 307.522 218.36 307.112C217.681 307.821 216.849 308.176 215.864 308.176C214.909 308.176 214.13 307.903 213.526 307.358C212.923 306.813 212.621 306.14 212.621 305.337C212.621 304.323 212.996 303.547 213.746 303.008C214.502 302.463 215.58 302.19 216.98 302.19H218.29V301.566C218.29 301.074 218.152 300.682 217.877 300.389C217.602 300.09 217.183 299.94 216.62 299.94C216.134 299.94 215.735 300.063 215.425 300.31C215.114 300.55 214.959 300.857 214.959 301.232H212.823C212.823 300.711 212.996 300.225 213.342 299.773C213.688 299.316 214.156 298.959 214.748 298.701C215.346 298.443 216.011 298.314 216.743 298.314C217.856 298.314 218.744 298.596 219.406 299.158C220.068 299.715 220.408 300.5 220.426 301.514V305.803C220.426 306.658 220.546 307.341 220.786 307.851V308H218.606ZM216.26 306.462C216.682 306.462 217.077 306.359 217.446 306.154C217.821 305.949 218.103 305.674 218.29 305.328V303.535H217.139C216.348 303.535 215.753 303.673 215.354 303.948C214.956 304.224 214.757 304.613 214.757 305.117C214.757 305.527 214.892 305.855 215.161 306.102C215.437 306.342 215.803 306.462 216.26 306.462ZM230.006 300.187H226.921V308H224.785V300.187H221.735V298.49H230.006V300.187ZM233.732 301.514H235.824C236.604 301.514 237.283 301.648 237.863 301.918C238.443 302.188 238.883 302.565 239.182 303.052C239.486 303.538 239.639 304.104 239.639 304.748C239.639 305.727 239.293 306.512 238.602 307.104C237.91 307.695 236.99 307.994 235.842 308H231.597V298.49H233.732V301.514ZM233.732 303.228V306.295H235.815C236.337 306.295 236.747 306.166 237.046 305.908C237.351 305.645 237.503 305.272 237.503 304.792C237.503 304.312 237.354 303.934 237.055 303.658C236.762 303.377 236.363 303.233 235.859 303.228H233.732ZM253.033 301.092C253.033 301.514 252.904 301.903 252.646 302.261C252.395 302.612 252.037 302.894 251.574 303.104C252.664 303.485 253.209 304.221 253.209 305.311C253.209 306.184 252.854 306.881 252.146 307.402C251.437 307.918 250.487 308.176 249.298 308.176C248.571 308.176 247.909 308.056 247.312 307.815C246.714 307.569 246.248 307.224 245.914 306.778C245.58 306.327 245.413 305.794 245.413 305.179H247.54C247.54 305.565 247.713 305.891 248.059 306.154C248.404 306.412 248.841 306.541 249.368 306.541C249.89 306.541 250.303 306.421 250.607 306.181C250.918 305.935 251.073 305.615 251.073 305.223C251.073 304.76 250.938 304.426 250.669 304.221C250.399 304.016 249.983 303.913 249.421 303.913H247.892V302.375H249.474C250.429 302.363 250.906 301.971 250.906 301.197C250.906 300.811 250.769 300.509 250.493 300.292C250.218 300.075 249.84 299.967 249.359 299.967C248.891 299.967 248.495 300.084 248.173 300.318C247.851 300.547 247.689 300.837 247.689 301.188H245.562C245.562 300.351 245.914 299.665 246.617 299.132C247.32 298.593 248.214 298.323 249.298 298.323C250.476 298.323 251.393 298.563 252.049 299.044C252.705 299.524 253.033 300.207 253.033 301.092ZM260.706 308C260.612 307.818 260.53 307.522 260.46 307.112C259.78 307.821 258.948 308.176 257.964 308.176C257.009 308.176 256.229 307.903 255.626 307.358C255.022 306.813 254.721 306.14 254.721 305.337C254.721 304.323 255.096 303.547 255.846 303.008C256.602 302.463 257.68 302.19 259.08 302.19H260.39V301.566C260.39 301.074 260.252 300.682 259.977 300.389C259.701 300.09 259.282 299.94 258.72 299.94C258.233 299.94 257.835 300.063 257.524 300.31C257.214 300.55 257.059 300.857 257.059 301.232H254.923C254.923 300.711 255.096 300.225 255.441 299.773C255.787 299.316 256.256 298.959 256.848 298.701C257.445 298.443 258.11 298.314 258.843 298.314C259.956 298.314 260.844 298.596 261.506 299.158C262.168 299.715 262.508 300.5 262.525 301.514V305.803C262.525 306.658 262.646 307.341 262.886 307.851V308H260.706ZM258.359 306.462C258.781 306.462 259.177 306.359 259.546 306.154C259.921 305.949 260.202 305.674 260.39 305.328V303.535H259.238C258.447 303.535 257.853 303.673 257.454 303.948C257.056 304.224 256.856 304.613 256.856 305.117C256.856 305.527 256.991 305.855 257.261 306.102C257.536 306.342 257.902 306.462 258.359 306.462ZM268.142 304.238H267.061V308H264.925V298.49H267.061V302.287H268.001L270.629 298.49H273.266L269.829 303.043L273.556 308H270.778L268.142 304.238ZM280.411 308C280.317 307.818 280.235 307.522 280.165 307.112C279.485 307.821 278.653 308.176 277.669 308.176C276.714 308.176 275.935 307.903 275.331 307.358C274.728 306.813 274.426 306.14 274.426 305.337C274.426 304.323 274.801 303.547 275.551 303.008C276.307 302.463 277.385 302.19 278.785 302.19H280.095V301.566C280.095 301.074 279.957 300.682 279.682 300.389C279.406 300.09 278.987 299.94 278.425 299.94C277.938 299.94 277.54 300.063 277.229 300.31C276.919 300.55 276.764 300.857 276.764 301.232H274.628C274.628 300.711 274.801 300.225 275.146 299.773C275.492 299.316 275.961 298.959 276.553 298.701C277.15 298.443 277.815 298.314 278.548 298.314C279.661 298.314 280.549 298.596 281.211 299.158C281.873 299.715 282.213 300.5 282.23 301.514V305.803C282.23 306.658 282.351 307.341 282.591 307.851V308H280.411ZM278.064 306.462C278.486 306.462 278.882 306.359 279.251 306.154C279.626 305.949 279.907 305.674 280.095 305.328V303.535H278.943C278.152 303.535 277.558 303.673 277.159 303.948C276.761 304.224 276.562 304.613 276.562 305.117C276.562 305.527 276.696 305.855 276.966 306.102C277.241 306.342 277.607 306.462 278.064 306.462ZM291.67 301.092C291.67 301.514 291.541 301.903 291.283 302.261C291.031 302.612 290.674 302.894 290.211 303.104C291.301 303.485 291.846 304.221 291.846 305.311C291.846 306.184 291.491 306.881 290.782 307.402C290.073 307.918 289.124 308.176 287.935 308.176C287.208 308.176 286.546 308.056 285.948 307.815C285.351 307.569 284.885 307.224 284.551 306.778C284.217 306.327 284.05 305.794 284.05 305.179H286.177C286.177 305.565 286.35 305.891 286.695 306.154C287.041 306.412 287.478 306.541 288.005 306.541C288.526 306.541 288.939 306.421 289.244 306.181C289.555 305.935 289.71 305.615 289.71 305.223C289.71 304.76 289.575 304.426 289.306 304.221C289.036 304.016 288.62 303.913 288.058 303.913H286.528V302.375H288.11C289.065 302.363 289.543 301.971 289.543 301.197C289.543 300.811 289.405 300.509 289.13 300.292C288.854 300.075 288.477 299.967 287.996 299.967C287.527 299.967 287.132 300.084 286.81 300.318C286.487 300.547 286.326 300.837 286.326 301.188H284.199C284.199 300.351 284.551 299.665 285.254 299.132C285.957 298.593 286.851 298.323 287.935 298.323C289.112 298.323 290.029 298.563 290.686 299.044C291.342 299.524 291.67 300.207 291.67 301.092Z" fill="#33485D"/>
<path opacity="0.5" d="M110 317H291.972V318H110V317Z" fill="#5C6D7D"/>
<path d="M111.485 133V120.203H115.669C117.058 120.203 118.101 120.49 118.798 121.064C119.501 121.639 119.853 122.488 119.853 123.613C119.853 124.211 119.683 124.741 119.343 125.204C119.003 125.661 118.54 126.016 117.954 126.268C118.646 126.461 119.19 126.83 119.589 127.375C119.993 127.914 120.195 128.559 120.195 129.309C120.195 130.457 119.823 131.359 119.079 132.016C118.335 132.672 117.283 133 115.924 133H111.485ZM113.173 127.015V131.62H115.959C116.744 131.62 117.362 131.418 117.813 131.014C118.271 130.604 118.499 130.041 118.499 129.326C118.499 127.785 117.661 127.015 115.985 127.015H113.173ZM113.173 125.661H115.722C116.46 125.661 117.049 125.477 117.488 125.107C117.934 124.738 118.156 124.237 118.156 123.604C118.156 122.901 117.951 122.392 117.541 122.075C117.131 121.753 116.507 121.592 115.669 121.592H113.173V125.661ZM129.872 128.948H128.686V133H127.051V123.49H128.686V127.516H129.749L132.948 123.49H134.917L131.155 128.061L135.233 133H133.168L129.872 128.948ZM136.007 128.157C136.007 127.226 136.188 126.388 136.552 125.644C136.921 124.899 137.431 124.325 138.081 123.921C138.737 123.517 139.484 123.314 140.322 123.314C141.617 123.314 142.663 123.763 143.46 124.659C144.263 125.556 144.664 126.748 144.664 128.236V128.351C144.664 129.276 144.485 130.108 144.128 130.847C143.776 131.579 143.27 132.15 142.607 132.561C141.951 132.971 141.195 133.176 140.34 133.176C139.051 133.176 138.005 132.728 137.202 131.831C136.405 130.935 136.007 129.748 136.007 128.271V128.157ZM137.642 128.351C137.642 129.405 137.885 130.252 138.371 130.891C138.863 131.529 139.52 131.849 140.34 131.849C141.166 131.849 141.822 131.526 142.309 130.882C142.795 130.231 143.038 129.323 143.038 128.157C143.038 127.114 142.789 126.271 142.291 125.626C141.799 124.976 141.143 124.65 140.322 124.65C139.52 124.65 138.872 124.97 138.38 125.608C137.888 126.247 137.642 127.161 137.642 128.351ZM154.736 128.351C154.736 129.798 154.405 130.964 153.743 131.849C153.081 132.733 152.185 133.176 151.054 133.176C149.899 133.176 148.991 132.81 148.329 132.077V136.656H146.703V123.49H148.188L148.268 124.545C148.93 123.725 149.85 123.314 151.027 123.314C152.17 123.314 153.072 123.745 153.734 124.606C154.402 125.468 154.736 126.666 154.736 128.201V128.351ZM153.11 128.166C153.11 127.094 152.882 126.247 152.425 125.626C151.968 125.005 151.341 124.694 150.544 124.694C149.56 124.694 148.821 125.131 148.329 126.004V130.548C148.815 131.415 149.56 131.849 150.562 131.849C151.341 131.849 151.959 131.541 152.416 130.926C152.879 130.305 153.11 129.385 153.11 128.166ZM162.04 126.092C162.04 125.646 161.87 125.295 161.53 125.037C161.19 124.773 160.725 124.642 160.133 124.642C159.559 124.642 159.078 124.791 158.691 125.09C158.311 125.389 158.12 125.74 158.12 126.145H156.503C156.503 125.318 156.849 124.642 157.54 124.114C158.231 123.587 159.096 123.323 160.133 123.323C161.246 123.323 162.113 123.563 162.734 124.044C163.355 124.519 163.666 125.198 163.666 126.083C163.666 126.511 163.537 126.903 163.279 127.261C163.021 127.618 162.655 127.902 162.181 128.113C163.288 128.488 163.842 129.227 163.842 130.328C163.842 131.201 163.505 131.893 162.831 132.402C162.157 132.912 161.258 133.167 160.133 133.167C159.037 133.167 158.132 132.9 157.417 132.367C156.708 131.828 156.354 131.102 156.354 130.188H157.971C157.971 130.65 158.176 131.049 158.586 131.383C159.002 131.711 159.518 131.875 160.133 131.875C160.754 131.875 161.255 131.731 161.636 131.444C162.017 131.157 162.207 130.785 162.207 130.328C162.207 129.795 162.046 129.414 161.724 129.186C161.407 128.951 160.912 128.834 160.238 128.834H158.612V127.463H160.379C161.486 127.434 162.04 126.977 162.04 126.092ZM172.104 123.49H173.729V133H172.104V126.065L167.718 133H166.092V123.49H167.718V130.434L172.104 123.49ZM184.109 133H182.483V128.939H178.115V133H176.48V123.49H178.115V127.612H182.483V123.49H184.109V133ZM190.675 133.176C189.386 133.176 188.337 132.754 187.528 131.91C186.72 131.061 186.315 129.927 186.315 128.509V128.21C186.315 127.267 186.494 126.426 186.852 125.688C187.215 124.943 187.719 124.363 188.363 123.947C189.014 123.525 189.717 123.314 190.473 123.314C191.709 123.314 192.67 123.722 193.355 124.536C194.041 125.351 194.384 126.517 194.384 128.034V128.711H187.941C187.965 129.648 188.237 130.407 188.759 130.987C189.286 131.562 189.954 131.849 190.763 131.849C191.337 131.849 191.823 131.731 192.222 131.497C192.62 131.263 192.969 130.952 193.268 130.565L194.261 131.339C193.464 132.563 192.269 133.176 190.675 133.176ZM190.473 124.65C189.816 124.65 189.266 124.891 188.82 125.371C188.375 125.846 188.1 126.514 187.994 127.375H192.758V127.252C192.711 126.426 192.488 125.787 192.09 125.336C191.691 124.879 191.152 124.65 190.473 124.65ZM121.32 154H119.624V148.085H113.173V154H111.485V141.203H113.173V146.705H119.624V141.203H121.32V154ZM129.934 154C129.84 153.812 129.764 153.479 129.705 152.998C128.949 153.783 128.047 154.176 126.998 154.176C126.061 154.176 125.29 153.912 124.687 153.385C124.089 152.852 123.79 152.178 123.79 151.363C123.79 150.373 124.165 149.605 124.915 149.061C125.671 148.51 126.731 148.234 128.097 148.234H129.679V147.487C129.679 146.919 129.509 146.468 129.169 146.134C128.829 145.794 128.328 145.624 127.666 145.624C127.086 145.624 126.6 145.771 126.207 146.063C125.814 146.356 125.618 146.711 125.618 147.127H123.983C123.983 146.652 124.15 146.195 124.484 145.756C124.824 145.311 125.281 144.959 125.855 144.701C126.436 144.443 127.071 144.314 127.763 144.314C128.858 144.314 129.717 144.59 130.338 145.141C130.959 145.686 131.281 146.438 131.305 147.399V151.776C131.305 152.649 131.416 153.344 131.639 153.859V154H129.934ZM127.235 152.761C127.745 152.761 128.229 152.629 128.686 152.365C129.143 152.102 129.474 151.759 129.679 151.337V149.386H128.404C126.412 149.386 125.416 149.969 125.416 151.135C125.416 151.645 125.586 152.043 125.926 152.33C126.266 152.617 126.702 152.761 127.235 152.761ZM142.133 152.849C142.713 152.849 143.22 152.673 143.653 152.321C144.087 151.97 144.327 151.53 144.374 151.003H145.912C145.883 151.548 145.695 152.066 145.35 152.559C145.004 153.051 144.541 153.443 143.961 153.736C143.387 154.029 142.777 154.176 142.133 154.176C140.838 154.176 139.807 153.745 139.039 152.884C138.277 152.017 137.896 150.833 137.896 149.333V149.061C137.896 148.135 138.066 147.312 138.406 146.591C138.746 145.87 139.232 145.311 139.865 144.912C140.504 144.514 141.257 144.314 142.124 144.314C143.19 144.314 144.075 144.634 144.778 145.272C145.487 145.911 145.865 146.74 145.912 147.76H144.374C144.327 147.145 144.093 146.641 143.671 146.248C143.255 145.85 142.739 145.65 142.124 145.65C141.298 145.65 140.656 145.949 140.199 146.547C139.748 147.139 139.522 147.997 139.522 149.122V149.43C139.522 150.525 139.748 151.369 140.199 151.961C140.65 152.553 141.295 152.849 142.133 152.849ZM150.852 151.618L153.066 144.49H154.807L150.983 155.468C150.392 157.05 149.451 157.841 148.162 157.841L147.854 157.814L147.248 157.7V156.382L147.688 156.417C148.238 156.417 148.666 156.306 148.971 156.083C149.281 155.86 149.536 155.453 149.735 154.861L150.096 153.895L146.703 144.49H148.479L150.852 151.618ZM161.741 151.847L164.976 144.49H167.006V154H165.38V147.083L162.304 154H161.179L158.041 146.934V154H156.415V144.49H158.524L161.741 151.847ZM175.101 151.847L178.335 144.49H180.365V154H178.739V147.083L175.663 154H174.538L171.4 146.934V154H169.774V144.49H171.884L175.101 151.847ZM186.096 151.618L188.311 144.49H190.051L186.228 155.468C185.636 157.05 184.695 157.841 183.406 157.841L183.099 157.814L182.492 157.7V156.382L182.932 156.417C183.482 156.417 183.91 156.306 184.215 156.083C184.525 155.86 184.78 155.453 184.979 154.861L185.34 153.895L181.947 144.49H183.723L186.096 151.618Z" fill="#5C6D7D"/>
<path d="M202.962 125.477H204.315C204.96 125.477 205.438 125.315 205.748 124.993C206.059 124.671 206.214 124.243 206.214 123.71C206.214 123.194 206.059 122.793 205.748 122.506C205.443 122.219 205.021 122.075 204.482 122.075C203.996 122.075 203.589 122.21 203.261 122.479C202.933 122.743 202.769 123.089 202.769 123.517H200.229C200.229 122.849 200.407 122.251 200.765 121.724C201.128 121.19 201.632 120.774 202.276 120.476C202.927 120.177 203.642 120.027 204.421 120.027C205.774 120.027 206.835 120.353 207.603 121.003C208.37 121.647 208.754 122.538 208.754 123.675C208.754 124.261 208.575 124.8 208.218 125.292C207.86 125.784 207.392 126.162 206.812 126.426C207.532 126.684 208.068 127.07 208.42 127.586C208.777 128.102 208.956 128.711 208.956 129.414C208.956 130.551 208.54 131.462 207.708 132.147C206.882 132.833 205.786 133.176 204.421 133.176C203.144 133.176 202.098 132.839 201.283 132.165C200.475 131.491 200.07 130.601 200.07 129.493H202.61C202.61 129.974 202.789 130.366 203.146 130.671C203.51 130.976 203.955 131.128 204.482 131.128C205.086 131.128 205.558 130.97 205.897 130.653C206.243 130.331 206.416 129.906 206.416 129.379C206.416 128.102 205.713 127.463 204.307 127.463H202.962V125.477ZM223.194 125.529H220.145V133H217.596V125.529H214.599V123.49H223.194V125.529ZM223.818 128.157C223.818 127.214 224 126.373 224.363 125.635C224.727 124.896 225.248 124.325 225.928 123.921C226.613 123.517 227.407 123.314 228.31 123.314C229.593 123.314 230.639 123.707 231.447 124.492C232.262 125.277 232.716 126.344 232.81 127.691L232.827 128.342C232.827 129.801 232.42 130.973 231.605 131.857C230.791 132.736 229.698 133.176 228.327 133.176C226.956 133.176 225.86 132.736 225.04 131.857C224.226 130.979 223.818 129.783 223.818 128.271V128.157ZM226.358 128.342C226.358 129.244 226.528 129.936 226.868 130.416C227.208 130.891 227.694 131.128 228.327 131.128C228.942 131.128 229.423 130.894 229.769 130.425C230.114 129.95 230.287 129.194 230.287 128.157C230.287 127.272 230.114 126.587 229.769 126.101C229.423 125.614 228.937 125.371 228.31 125.371C227.688 125.371 227.208 125.614 226.868 126.101C226.528 126.581 226.358 127.328 226.358 128.342ZM234.559 133V123.49H238.531C239.826 123.49 240.819 123.719 241.511 124.176C242.202 124.633 242.548 125.289 242.548 126.145C242.548 126.584 242.401 126.979 242.108 127.331C241.821 127.677 241.399 127.943 240.843 128.131C241.522 128.26 242.056 128.515 242.442 128.896C242.835 129.271 243.031 129.733 243.031 130.284C243.031 131.169 242.697 131.843 242.029 132.306C241.367 132.769 240.403 133 239.138 133H234.559ZM237.099 129.054V130.97H239.146C240.043 130.97 240.491 130.656 240.491 130.029C240.491 129.391 240.063 129.065 239.208 129.054H237.099ZM237.099 127.349H238.672C239.562 127.337 240.008 127.05 240.008 126.487C240.008 126.142 239.885 125.896 239.639 125.749C239.398 125.603 239.029 125.529 238.531 125.529H237.099V127.349ZM250.098 133C249.98 132.771 249.896 132.487 249.843 132.147C249.228 132.833 248.428 133.176 247.443 133.176C246.512 133.176 245.738 132.906 245.123 132.367C244.514 131.828 244.209 131.148 244.209 130.328C244.209 129.32 244.581 128.547 245.325 128.008C246.075 127.469 247.156 127.196 248.568 127.19H249.737V126.646C249.737 126.206 249.623 125.854 249.395 125.591C249.172 125.327 248.817 125.195 248.331 125.195C247.903 125.195 247.566 125.298 247.32 125.503C247.08 125.708 246.96 125.989 246.96 126.347H244.42C244.42 125.796 244.59 125.286 244.93 124.817C245.27 124.349 245.75 123.982 246.371 123.719C246.992 123.449 247.689 123.314 248.463 123.314C249.635 123.314 250.563 123.61 251.249 124.202C251.94 124.788 252.286 125.614 252.286 126.681V130.803C252.292 131.705 252.418 132.388 252.664 132.851V133H250.098ZM247.997 131.233C248.372 131.233 248.718 131.151 249.034 130.987C249.351 130.817 249.585 130.592 249.737 130.311V128.676H248.788C247.517 128.676 246.84 129.115 246.758 129.994L246.749 130.144C246.749 130.46 246.86 130.721 247.083 130.926C247.306 131.131 247.61 131.233 247.997 131.233ZM262.798 128.333C262.798 129.798 262.464 130.973 261.796 131.857C261.134 132.736 260.237 133.176 259.106 133.176C258.146 133.176 257.369 132.842 256.777 132.174V136.656H254.237V123.49H256.593L256.681 124.422C257.296 123.684 258.099 123.314 259.089 123.314C260.261 123.314 261.172 123.748 261.822 124.615C262.473 125.482 262.798 126.678 262.798 128.201V128.333ZM260.258 128.148C260.258 127.264 260.1 126.581 259.783 126.101C259.473 125.62 259.019 125.38 258.421 125.38C257.624 125.38 257.076 125.685 256.777 126.294V130.188C257.088 130.814 257.642 131.128 258.438 131.128C259.651 131.128 260.258 130.135 260.258 128.148ZM269.891 133C269.773 132.771 269.688 132.487 269.636 132.147C269.021 132.833 268.221 133.176 267.236 133.176C266.305 133.176 265.531 132.906 264.916 132.367C264.307 131.828 264.002 131.148 264.002 130.328C264.002 129.32 264.374 128.547 265.118 128.008C265.868 127.469 266.949 127.196 268.361 127.19H269.53V126.646C269.53 126.206 269.416 125.854 269.188 125.591C268.965 125.327 268.61 125.195 268.124 125.195C267.696 125.195 267.359 125.298 267.113 125.503C266.873 125.708 266.753 125.989 266.753 126.347H264.213C264.213 125.796 264.383 125.286 264.723 124.817C265.062 124.349 265.543 123.982 266.164 123.719C266.785 123.449 267.482 123.314 268.256 123.314C269.428 123.314 270.356 123.61 271.042 124.202C271.733 124.788 272.079 125.614 272.079 126.681V130.803C272.085 131.705 272.211 132.388 272.457 132.851V133H269.891ZM267.79 131.233C268.165 131.233 268.511 131.151 268.827 130.987C269.144 130.817 269.378 130.592 269.53 130.311V128.676H268.581C267.31 128.676 266.633 129.115 266.551 129.994L266.542 130.144C266.542 130.46 266.653 130.721 266.876 130.926C267.099 131.131 267.403 131.233 267.79 131.233ZM198.198 146.477H199.552C200.196 146.477 200.674 146.315 200.984 145.993C201.295 145.671 201.45 145.243 201.45 144.71C201.45 144.194 201.295 143.793 200.984 143.506C200.68 143.219 200.258 143.075 199.719 143.075C199.232 143.075 198.825 143.21 198.497 143.479C198.169 143.743 198.005 144.089 198.005 144.517H195.465C195.465 143.849 195.644 143.251 196.001 142.724C196.364 142.19 196.868 141.774 197.513 141.476C198.163 141.177 198.878 141.027 199.657 141.027C201.011 141.027 202.071 141.353 202.839 142.003C203.606 142.647 203.99 143.538 203.99 144.675C203.99 145.261 203.812 145.8 203.454 146.292C203.097 146.784 202.628 147.162 202.048 147.426C202.769 147.684 203.305 148.07 203.656 148.586C204.014 149.102 204.192 149.711 204.192 150.414C204.192 151.551 203.776 152.462 202.944 153.147C202.118 153.833 201.022 154.176 199.657 154.176C198.38 154.176 197.334 153.839 196.52 153.165C195.711 152.491 195.307 151.601 195.307 150.493H197.847C197.847 150.974 198.025 151.366 198.383 151.671C198.746 151.976 199.191 152.128 199.719 152.128C200.322 152.128 200.794 151.97 201.134 151.653C201.479 151.331 201.652 150.906 201.652 150.379C201.652 149.102 200.949 148.463 199.543 148.463H198.198V146.477ZM214.563 148.709C214.563 150.479 214.197 151.832 213.465 152.77C212.732 153.707 211.66 154.176 210.248 154.176C208.854 154.176 207.787 153.716 207.049 152.796C206.311 151.876 205.933 150.558 205.915 148.841V146.485C205.915 144.698 206.284 143.342 207.022 142.416C207.767 141.49 208.836 141.027 210.23 141.027C211.625 141.027 212.691 141.487 213.43 142.407C214.168 143.321 214.546 144.637 214.563 146.354V148.709ZM212.023 146.125C212.023 145.064 211.877 144.294 211.584 143.813C211.297 143.327 210.846 143.084 210.23 143.084C209.633 143.084 209.19 143.315 208.903 143.778C208.622 144.235 208.473 144.953 208.455 145.932V149.043C208.455 150.086 208.596 150.862 208.877 151.372C209.164 151.876 209.621 152.128 210.248 152.128C210.869 152.128 211.317 151.885 211.593 151.398C211.868 150.912 212.012 150.168 212.023 149.166V146.125ZM229.382 148.709C229.382 150.479 229.016 151.832 228.283 152.77C227.551 153.707 226.479 154.176 225.066 154.176C223.672 154.176 222.605 153.716 221.867 152.796C221.129 151.876 220.751 150.558 220.733 148.841V146.485C220.733 144.698 221.103 143.342 221.841 142.416C222.585 141.49 223.654 141.027 225.049 141.027C226.443 141.027 227.51 141.487 228.248 142.407C228.986 143.321 229.364 144.637 229.382 146.354V148.709ZM226.842 146.125C226.842 145.064 226.695 144.294 226.402 143.813C226.115 143.327 225.664 143.084 225.049 143.084C224.451 143.084 224.009 143.315 223.722 143.778C223.44 144.235 223.291 144.953 223.273 145.932V149.043C223.273 150.086 223.414 150.862 223.695 151.372C223.982 151.876 224.439 152.128 225.066 152.128C225.688 152.128 226.136 151.885 226.411 151.398C226.687 150.912 226.83 150.168 226.842 149.166V146.125ZM239.718 148.709C239.718 150.479 239.352 151.832 238.619 152.77C237.887 153.707 236.814 154.176 235.402 154.176C234.008 154.176 232.941 153.716 232.203 152.796C231.465 151.876 231.087 150.558 231.069 148.841V146.485C231.069 144.698 231.438 143.342 232.177 142.416C232.921 141.49 233.99 141.027 235.385 141.027C236.779 141.027 237.846 141.487 238.584 142.407C239.322 143.321 239.7 144.637 239.718 146.354V148.709ZM237.178 146.125C237.178 145.064 237.031 144.294 236.738 143.813C236.451 143.327 236 143.084 235.385 143.084C234.787 143.084 234.345 143.315 234.058 143.778C233.776 144.235 233.627 144.953 233.609 145.932V149.043C233.609 150.086 233.75 150.862 234.031 151.372C234.318 151.876 234.775 152.128 235.402 152.128C236.023 152.128 236.472 151.885 236.747 151.398C237.022 150.912 237.166 150.168 237.178 149.166V146.125ZM250.054 148.709C250.054 150.479 249.688 151.832 248.955 152.77C248.223 153.707 247.15 154.176 245.738 154.176C244.344 154.176 243.277 153.716 242.539 152.796C241.801 151.876 241.423 150.558 241.405 148.841V146.485C241.405 144.698 241.774 143.342 242.513 142.416C243.257 141.49 244.326 141.027 245.721 141.027C247.115 141.027 248.182 141.487 248.92 142.407C249.658 143.321 250.036 144.637 250.054 146.354V148.709ZM247.514 146.125C247.514 145.064 247.367 144.294 247.074 143.813C246.787 143.327 246.336 143.084 245.721 143.084C245.123 143.084 244.681 143.315 244.394 143.778C244.112 144.235 243.963 144.953 243.945 145.932V149.043C243.945 150.086 244.086 150.862 244.367 151.372C244.654 151.876 245.111 152.128 245.738 152.128C246.359 152.128 246.808 151.885 247.083 151.398C247.358 150.912 247.502 150.168 247.514 149.166V146.125ZM260.609 154.18C259.205 154.18 258.125 153.898 257.369 153.334C256.613 152.77 256.235 151.918 256.235 150.778C256.235 150.322 256.301 149.908 256.433 149.536H255.587V148.384H257.099C257.339 148.144 257.657 147.928 258.053 147.736C258.461 147.532 258.881 147.352 259.313 147.196C259.757 147.04 260.147 146.908 260.483 146.8C260.819 146.68 261.035 146.596 261.131 146.548H255.587V145.396H262.463C262.559 145.228 262.625 145.054 262.661 144.874C262.709 144.694 262.733 144.466 262.733 144.19C262.733 143.626 262.541 143.188 262.157 142.876C261.773 142.552 261.173 142.39 260.357 142.39C259.769 142.39 259.211 142.468 258.683 142.624C258.167 142.78 257.705 142.954 257.297 143.146L256.847 141.724C257.303 141.508 257.861 141.328 258.521 141.184C259.181 141.04 259.823 140.968 260.447 140.968C261.659 140.968 262.613 141.22 263.309 141.724C264.017 142.216 264.371 142.972 264.371 143.992C264.371 144.244 264.353 144.496 264.317 144.748C264.281 144.988 264.215 145.204 264.119 145.396H265.109V146.548H263.543C263.351 146.74 263.051 146.938 262.643 147.142C262.235 147.334 261.809 147.514 261.365 147.682C260.921 147.85 260.519 147.994 260.159 148.114C259.799 148.234 259.565 148.324 259.457 148.384H265.109V149.536H258.107C258.011 149.716 257.945 149.884 257.909 150.04C257.873 150.196 257.855 150.412 257.855 150.688C257.855 152.08 258.821 152.776 260.753 152.776C261.437 152.776 262.097 152.692 262.733 152.524C263.381 152.344 263.921 152.158 264.353 151.966V153.424C263.945 153.616 263.399 153.79 262.715 153.946C262.031 154.102 261.329 154.18 260.609 154.18Z" fill="#33485D"/>
<path d="M321 9H401C406.523 9 411 13.4772 411 19V69H321V9Z" fill="#47B39C"/>
<g clip-path="url(#clip1_2401_145)">
<path d="M378.875 31.25C378.75 31.125 378.625 30.9999 378.375 30.9999H354.625L354 27.75C354 27.5 353.625 27.25 353.375 27.25H349.625C349.25 27.2499 349 27.5 349 27.875C349 28.25 349.25 28.5 349.625 28.5H352.875L355.875 43.75C356.25 45.75 358.125 47.25 360.125 47.25H374.5C374.875 47.25 375.125 47 375.125 46.625C375.125 46.25 374.875 46 374.5 46H360.25C359.25 46 358.25 45.5 357.75 44.6249L376 42.125C376.25 42.125 376.5 41.875 376.5 41.625L379 31.625C379 31.625 379 31.3749 378.875 31.25ZM375.375 41L357.125 43.375L354.875 32.1249H377.5L375.375 41Z" fill="white"/>
<path d="M359.625 48.5C357.875 48.5 356.5 49.875 356.5 51.625C356.5 53.375 357.875 54.75 359.625 54.75C361.375 54.75 362.75 53.3749 362.75 51.625C362.75 49.875 361.375 48.5 359.625 48.5ZM359.625 53.5C358.625 53.5 357.75 52.6249 357.75 51.625C357.75 50.625 358.625 49.75 359.625 49.75C360.625 49.75 361.5 50.625 361.5 51.625C361.5 52.6249 360.625 53.5 359.625 53.5Z" fill="white"/>
<path d="M372.125 48.5C370.375 48.5 369 49.875 369 51.625C369 53.375 370.375 54.75 372.125 54.75C373.875 54.75 375.25 53.3749 375.25 51.625C375.25 49.875 373.875 48.5 372.125 48.5ZM372.125 53.5C371.125 53.5 370.25 52.6249 370.25 51.625C370.25 50.625 371.125 49.75 372.125 49.75C373.125 49.75 374 50.625 374 51.625C374 52.6249 373.125 53.5 372.125 53.5Z" fill="white"/>
</g>
<rect x="375" y="16" width="30" height="20" rx="10" fill="white"/>
<path d="M388.687 25.1484H389.739C390.241 25.1484 390.612 25.0231 390.854 24.7725C391.095 24.5218 391.216 24.1891 391.216 23.7744C391.216 23.3734 391.095 23.0612 390.854 22.8379C390.617 22.6146 390.288 22.5029 389.869 22.5029C389.491 22.5029 389.174 22.6077 388.919 22.8174C388.664 23.0225 388.536 23.2913 388.536 23.624H386.561C386.561 23.1045 386.7 22.6396 386.978 22.2295C387.26 21.8148 387.652 21.4912 388.153 21.2588C388.659 21.0264 389.215 20.9102 389.821 20.9102C390.874 20.9102 391.699 21.1631 392.296 21.6689C392.893 22.1702 393.191 22.863 393.191 23.7471C393.191 24.2028 393.052 24.6221 392.774 25.0049C392.496 25.3877 392.132 25.6816 391.681 25.8867C392.241 26.0872 392.658 26.388 392.932 26.7891C393.21 27.1901 393.349 27.6641 393.349 28.2109C393.349 29.0951 393.025 29.8037 392.378 30.3369C391.735 30.8701 390.883 31.1367 389.821 31.1367C388.828 31.1367 388.014 30.8747 387.381 30.3506C386.752 29.8265 386.438 29.1338 386.438 28.2725H388.413C388.413 28.6462 388.552 28.9515 388.83 29.1885C389.113 29.4255 389.459 29.5439 389.869 29.5439C390.339 29.5439 390.705 29.4209 390.97 29.1748C391.239 28.9242 391.373 28.5938 391.373 28.1836C391.373 27.1901 390.826 26.6934 389.732 26.6934H388.687V25.1484Z" fill="#33485D"/>
<defs>
<filter id="filter0_d_2401_145" x="0" y="0.162354" width="498" height="437.838" filterUnits="userSpaceOnUse" color-interpolation-filters="sRGB">
<feFlood flood-opacity="0" result="BackgroundImageFix"/>
<feColorMatrix in="SourceAlpha" type="matrix" values="0 0 0 0 0 0 0 0 0 0 0 0 0 0 0 0 0 0 127 0" result="hardAlpha"/>
<feOffset dy="10"/>
<feGaussianBlur stdDeviation="40"/>
<feColorMatrix type="matrix" values="0 0 0 0 0 0 0 0 0 0.204167 0 0 0 0 0.160687 0 0 0 0.3 0"/>
<feBlend mode="normal" in2="BackgroundImageFix" result="effect1_dropShadow_2401_145"/>
<feBlend mode="normal" in="SourceGraphic" in2="effect1_dropShadow_2401_145" result="shape"/>
</filter>
<clipPath id="clip0_2401_145">
<rect width="30" height="30" fill="white" transform="translate(335 214)"/>
</clipPath>
<clipPath id="clip1_2401_145">
<rect width="30" height="30" fill="white" transform="translate(349 26)"/>
</clipPath>
</defs>
</svg>
