<svg width="34" height="34" viewBox="0 0 34 34" fill="none" xmlns="http://www.w3.org/2000/svg">
<path fill-rule="evenodd" clip-rule="evenodd" d="M14.4406 15.7257C14.6889 15.9172 14.7349 16.2739 14.5433 16.5222L7.2925 25.9215L7.26669 25.9473C7.2516 25.9624 7.2516 25.9857 7.26669 26.0008L8.44468 27.1788C8.45977 27.1939 8.48313 27.1939 8.49823 27.1788L8.51117 27.1659L17.3598 19.3898C17.5954 19.1827 17.9543 19.2059 18.1613 19.4415C18.3684 19.6771 18.3452 20.0359 18.1096 20.243L9.28628 27.9968C8.82655 28.4406 8.09517 28.4356 7.64151 27.982L6.46352 26.804C6.01485 26.3553 6.00507 25.635 6.43416 25.1745L13.644 15.8284C13.8356 15.5801 14.1922 15.5341 14.4406 15.7257Z" fill="#33485D"/>
<path fill-rule="evenodd" clip-rule="evenodd" d="M1.47194 29.6852L4.43896 32.6523L8.79614 29.1936L4.93058 25.3281L1.47194 29.6852ZM4.45384 24.1017C4.69073 23.8648 5.07368 23.8648 5.31056 24.1017L10.0225 28.8136C10.2594 29.0505 10.2594 29.4335 10.0225 29.6704L4.82951 33.7924C4.59263 34.0293 4.20968 34.0293 3.9728 33.7924L0.331749 30.1514C0.0948673 29.9145 0.0948674 29.5316 0.33175 29.2947L4.45384 24.1017Z" fill="#33485D"/>
<path fill-rule="evenodd" clip-rule="evenodd" d="M12.3412 18.7001L12.6117 19.0391L11.7237 19.7475L11.4412 19.3933L11.4354 19.3855C10.5277 18.1647 9.90024 16.9028 9.64724 15.7742C9.39841 14.6642 9.4895 13.5507 10.2276 12.8126C11.1221 11.9181 12.6094 11.923 14.0471 12.3779C15.5307 12.8474 17.1738 13.8511 18.6163 15.2935C20.0587 16.736 21.0624 18.3792 21.5319 19.8627C21.9869 21.3005 21.9917 22.7877 21.0972 23.6822C20.38 24.3994 19.3075 24.5054 18.2325 24.2835C17.1419 24.0583 15.9221 23.4763 14.7341 22.6274L15.3945 21.7032C16.4954 22.4899 17.5701 22.9869 18.4622 23.1711C19.3701 23.3585 19.9687 23.2044 20.2941 22.879C20.7183 22.4548 20.8703 21.537 20.449 20.2054C20.0421 18.9198 19.146 17.4296 17.8131 16.0967C16.4803 14.7639 14.9901 13.8677 13.7044 13.4608C12.3729 13.0395 11.4551 13.1915 11.0308 13.6158C10.6959 13.9507 10.5428 14.5764 10.7556 15.5258C10.9638 16.4545 11.5018 17.5694 12.3412 18.7001Z" fill="#33485D"/>
<path fill-rule="evenodd" clip-rule="evenodd" d="M20.237 23.6845C20.4323 23.9299 20.7896 23.9705 21.035 23.7751L24.1848 21.2673C24.1852 21.267 24.1856 21.2667 24.186 21.2665C25.5718 20.1742 26.3114 18.75 26.0955 16.9884C25.8865 15.2834 24.7918 13.3582 22.7778 11.1812L22.7628 11.165L22.7466 11.15C20.5691 9.13552 18.6691 8.06648 16.9753 7.87197C15.2302 7.67158 13.8161 8.40913 12.6775 9.72235L12.6697 9.73134L10.1527 12.8928C9.9573 13.1382 9.99785 13.4955 10.2432 13.6908C10.4886 13.8862 10.8459 13.8456 11.0413 13.6003L13.5433 10.4576C14.4977 9.36075 15.5633 8.85316 16.8457 9.00042C18.1793 9.15355 19.8539 10.0248 21.959 11.9688C23.9036 14.0745 24.8026 15.7773 24.968 17.1266C25.1269 18.4221 24.6186 19.4796 23.4819 20.3751L23.4808 20.376L20.3275 22.8865C20.0821 23.0819 20.0416 23.4392 20.237 23.6845Z" fill="#33485D"/>
<path fill-rule="evenodd" clip-rule="evenodd" d="M16.8143 8.70255C17.0506 8.90888 17.4093 8.88464 17.6157 8.6484L18.3485 7.80939C18.9127 7.20577 19.7471 6.88069 20.7979 7.03538C21.8679 7.19289 23.1906 7.85597 24.6377 9.30299C26.1166 10.7819 26.7791 12.0764 26.938 13.1138C27.0923 14.1219 26.7804 14.9345 26.1882 15.5342L25.401 16.2165C25.164 16.4219 25.1383 16.7806 25.3438 17.0176C25.5492 17.2546 25.9079 17.2803 26.1449 17.0748L26.9634 16.3655L26.9777 16.3512C27.8291 15.4998 28.2721 14.3224 28.0607 12.9419C27.8527 11.5831 27.0206 10.0796 25.4408 8.49982C23.8827 6.94167 22.3486 6.11555 20.9633 5.91163C19.5624 5.70541 18.3451 6.14399 17.5106 7.04241L17.5047 7.04878L16.7602 7.9012C16.5538 8.13744 16.5781 8.49622 16.8143 8.70255Z" fill="#33485D"/>
<path fill-rule="evenodd" clip-rule="evenodd" d="M12.8748 18.2525C12.7741 18.0805 12.6865 17.9117 12.6121 17.7481C12.4069 17.2966 12.311 16.9031 12.305 16.5973C12.2991 16.294 12.3799 16.1218 12.4761 16.0256C12.6363 15.8654 13.0389 15.7552 13.7995 16.0385C14.5175 16.306 15.3733 16.8697 16.1799 17.6763C16.9865 18.4829 17.5502 19.3387 17.8177 20.0567C18.101 20.8173 17.9908 21.2199 17.8306 21.3801C17.7189 21.4918 17.4988 21.5849 17.0955 21.5402C16.6958 21.496 16.1907 21.3203 15.6363 21.0004L15.0687 21.9842C15.712 22.3554 16.3686 22.6025 16.9704 22.6692C17.5684 22.7355 18.1893 22.6277 18.6338 22.1832C19.2906 21.5264 19.2039 20.5243 18.8821 19.6602C18.5443 18.7534 17.8742 17.7642 16.9831 16.8731C16.092 15.982 15.1028 15.3119 14.196 14.9741C13.3319 14.6523 12.3298 14.5656 11.673 15.2224C11.2945 15.6008 11.1595 16.1108 11.1694 16.6195C11.1793 17.1258 11.331 17.6746 11.5781 18.2181C11.6696 18.4195 11.7755 18.6229 11.8944 18.8262L12.8748 18.2525Z" fill="#33485D"/>
<path fill-rule="evenodd" clip-rule="evenodd" d="M5.42355 28.7218C5.10805 28.4063 4.59318 28.4063 4.27769 28.7218C3.96219 29.0372 3.96219 29.5521 4.27769 29.8676C4.59318 30.1831 5.10805 30.1831 5.42355 29.8676C5.73904 29.5521 5.73904 29.0372 5.42355 28.7218ZM3.47451 27.9186C4.23359 27.1595 5.46765 27.1595 6.22672 27.9186C6.98579 28.6777 6.98579 29.9117 6.22672 30.6708C5.46765 31.4299 4.23359 31.4299 3.47451 30.6708C2.71544 29.9117 2.71544 28.6777 3.47451 27.9186Z" fill="#E67861"/>
<path fill-rule="evenodd" clip-rule="evenodd" d="M26.7036 12.0885C26.932 12.3034 27.2914 12.2925 27.5064 12.0641L29.3488 10.1066C29.5638 9.8782 29.5529 9.51877 29.3245 9.3038C29.0961 9.08883 28.7366 9.09972 28.5217 9.32813L26.6793 11.2857C26.4643 11.5141 26.4752 11.8735 26.7036 12.0885ZM21.8166 7.10747C22.0265 7.3405 22.3856 7.3592 22.6187 7.14924L28.0382 2.26619L28.0487 2.25574C28.0616 2.24286 28.0814 2.24286 28.0942 2.25574L28.0948 2.25635L31.5328 5.67357C31.5328 5.67365 31.5329 5.67373 31.533 5.67382C31.5456 5.6867 31.5455 5.70631 31.5328 5.7191L31.5125 5.73937L30.6237 6.82836C30.4254 7.07136 30.4616 7.42912 30.7046 7.62744C30.9476 7.82577 31.3054 7.78955 31.5037 7.54655L32.3591 6.49844C32.7923 6.04044 32.7845 5.31899 32.3359 4.87039L32.3353 4.86979L28.8974 1.45257C28.8971 1.4523 28.8969 1.45204 28.8966 1.45177C28.4441 1.00015 27.7148 0.996406 27.2577 1.44053L21.8583 6.30539C21.6253 6.51534 21.6066 6.87445 21.8166 7.10747Z" fill="#33485D"/>
<path fill-rule="evenodd" clip-rule="evenodd" d="M29.0514 5.97475L27.6057 7.42046L31.2468 11.0615L32.6925 9.6158L29.0514 5.97475ZM29.6672 4.98417L33.683 9.00004C34.0231 9.34011 34.0231 9.89149 33.683 10.2316L31.8625 12.0521C31.5224 12.3922 30.9711 12.3922 30.631 12.0521L26.6151 8.03623C26.2751 7.69615 26.2751 7.14478 26.6151 6.8047L28.4357 4.98417C28.7757 4.6441 29.3271 4.6441 29.6672 4.98417Z" fill="#E67861"/>
</svg>
