<svg width="76" height="14" viewBox="0 0 76 14" fill="none" xmlns="http://www.w3.org/2000/svg">
<path d="M63.6832 13.9994C63.6284 13.9994 63.5735 13.9825 63.5274 13.9491C63.4458 13.8902 63.405 13.7905 63.4222 13.6919L64.2412 8.95332L60.7725 5.5978C60.7004 5.52784 60.6744 5.42344 60.7054 5.3285C60.7367 5.23329 60.8196 5.16386 60.9195 5.1494L65.7129 4.45799L67.8568 0.14676C67.9013 0.0568166 67.9936 1.02754e-05 68.0942 1.02754e-05C68.1952 1.02754e-05 68.2874 0.0568166 68.3317 0.14676L70.4753 4.45799L75.269 5.1494C75.3689 5.16386 75.4516 5.23303 75.4831 5.3285C75.5141 5.42344 75.4884 5.52811 75.4161 5.5978L71.9473 8.95384L72.766 13.6922C72.783 13.7908 72.7422 13.8905 72.6608 13.9494C72.5792 14.0088 72.4708 14.0164 72.3816 13.9694L68.0942 11.7324L63.8064 13.9694C63.7677 13.9894 63.7253 13.9994 63.6832 13.9994Z" fill="#FFA800"/>
<path d="M43.4529 13.9994C43.398 13.9994 43.3432 13.9825 43.2971 13.9491C43.2155 13.8902 43.1747 13.7905 43.1919 13.6919L44.0109 8.95332L40.5422 5.5978C40.4701 5.52784 40.4441 5.42344 40.4751 5.3285C40.5064 5.23329 40.5893 5.16386 40.6892 5.1494L45.4826 4.45799L47.6265 0.14676C47.671 0.0568166 47.7632 1.02754e-05 47.8639 1.02754e-05C47.9648 1.02754e-05 48.0571 0.0568166 48.1013 0.14676L50.2449 4.45799L55.0386 5.1494C55.1385 5.16386 55.2211 5.23303 55.2527 5.3285C55.2837 5.42344 55.258 5.52811 55.1856 5.5978L51.7169 8.95384L52.5356 13.6922C52.5526 13.7908 52.5118 13.8905 52.4304 13.9494C52.3488 14.0088 52.2404 14.0164 52.1512 13.9694L47.8639 11.7324L43.5761 13.9694C43.5374 13.9894 43.495 13.9994 43.4529 13.9994Z" fill="#FFA800"/>
<path d="M23.2475 13.9994C23.1927 13.9994 23.1378 13.9825 23.0917 13.9491C23.0101 13.8902 22.9693 13.7905 22.9865 13.6919L23.8056 8.95332L20.3368 5.5978C20.2647 5.52784 20.2388 5.42344 20.2698 5.3285C20.301 5.23329 20.384 5.16386 20.4839 5.1494L25.2772 4.45799L27.4211 0.14676C27.4656 0.0568166 27.5578 1.02754e-05 27.6585 1.02754e-05C27.7595 1.02754e-05 27.8517 0.0568166 27.8959 0.14676L30.0396 4.45799L34.8332 5.1494C34.9331 5.16386 35.0158 5.23303 35.0473 5.3285C35.0783 5.42344 35.0526 5.52811 34.9803 5.5978L31.5115 8.95384L32.3303 13.6922C32.3472 13.7908 32.3064 13.8905 32.2251 13.9494C32.1435 14.0088 32.0351 14.0164 31.9458 13.9694L27.6585 11.7324L23.3707 13.9694C23.3321 13.9894 23.2897 13.9994 23.2475 13.9994Z" fill="#FFA800"/>
<path d="M2.99065 13.9993C2.9358 13.9993 2.88095 13.9825 2.83484 13.9491C2.75323 13.8902 2.71243 13.7905 2.72965 13.6919L3.54868 8.95331L0.0799192 5.59779C0.0078465 5.52783 -0.018121 5.42343 0.0128809 5.32849C0.0441477 5.23328 0.127084 5.16385 0.226979 5.14939L5.02034 4.45798L7.16424 0.14675C7.20875 0.0568063 7.30096 0 7.40165 0C7.50261 0 7.59482 0.0568063 7.63907 0.14675L9.7827 4.45798L14.5763 5.14939C14.6762 5.16385 14.7589 5.23302 14.7904 5.32849C14.8214 5.42343 14.7957 5.5281 14.7234 5.59779L11.2546 8.95383L12.0734 13.6922C12.0904 13.7908 12.0495 13.8905 11.9682 13.9494C11.8866 14.0088 11.7782 14.0164 11.6889 13.9694L7.40165 11.7323L3.11386 13.9694C3.07517 13.9893 3.03278 13.9993 2.99065 13.9993Z" fill="#FFA800"/>
</svg>
